<!--?xml version="1.0" standalone="no"?-->
              <svg id="sw-js-blob-svg" viewBox="0 0 100 100" xmlns="http://www.w3.org/2000/svg" version="1.1">
                    <defs> 
                        <linearGradient id="sw-gradient" x1="0" x2="1" y1="1" y2="0">
                            <stop id="stop1" stop-color="rgba(244.683, 244.683, 244.683, 1)" offset="0%"></stop>
                            <stop id="stop2" stop-color="rgba(255, 199.213, 0, 0.71)" offset="100%"></stop>
                        </linearGradient>
                    </defs>
                <path fill="url(#sw-gradient)" d="M17.3,-33.1C19.3,-28.8,15.7,-17.9,18.4,-11.3C21.1,-4.7,30,-2.3,33.6,2.1C37.1,6.5,35.3,12.9,29.2,13.6C23.2,14.3,12.7,9.2,7.2,9.9C1.6,10.7,0.8,17.4,-2.6,21.8C-5.9,26.3,-11.9,28.6,-13,25.2C-14.2,21.9,-10.5,12.9,-8.4,7.8C-6.2,2.6,-5.5,1.3,-10.1,-2.7C-14.7,-6.6,-24.6,-13.3,-26.4,-17.8C-28.2,-22.3,-21.9,-24.7,-16.2,-26.9C-10.4,-29,-5.2,-30.9,1.2,-33C7.6,-35.1,15.3,-37.4,17.3,-33.1Z" width="100%" height="100%" transform="translate(50 50)" stroke-width="0" style="transition: 0.3s;" stroke="url(#sw-gradient)"></path>
              </svg>